ffmpeg started on 2025-06-04 at 20:44:21
Report written to "D:\Convert\FFMetrics\reports\ssim_report-6.txt"
Log level: 32
Command line:
ffmpeg -hide_banner -nostdin -i "G:\\\xc0\xed\xe8\xec\xe5\\\xce\xed\xe3\xee\xe8\xed\xe3\xe8\\!_36_\xce\xf1\xe5\xed\xfc_2024\\DreamCast\\\xc4\xe5\xf2\xf1\xea\xe0\xff \xc4\xe5\xeb\xe8\xea\xee\\[DC] Delicos Nursery - 06_Telegram_HEVC.mkv" -i "G:\\\xc0\xed\xe8\xec\xe5\\\xce\xed\xe3\xee\xe8\xed\xe3\xe8\\!_36_\xce\xf1\xe5\xed\xfc_2024\\DreamCast\\\xc4\xe5\xf2\xf1\xea\xe0\xff \xc4\xe5\xeb\xe8\xea\xee\\[DC] Delicos Nursery - 06_Telegram.mp4" -lavfi "[0:v]settb=AVTB,setpts=PTS-STARTPTS,format=pix_fmts=yuv420p10,fps=24000/1001,scale=1920:1080:flags=bicubic[main];[1:v]settb=AVTB,setpts=PTS-STARTPTS,format=pix_fmts=yuv420p,fps=24000/1001,scale=1920:1080:flags=bicubic[ref];[main][ref]ssim=eof_action=endall:stats_file='D\\:/Convert/FFMetrics/logs/ssim_logfile-6.txt'" -f null -
Input #0, matroska,webm, from 'G:\Аниме\Онгоинги\!_36_Осень_2024\DreamCast\Детская Делико\[DC] Delicos Nursery - 06_Telegram_HEVC.mkv':
  Metadata:
    COMPATIBLE_BRANDS: isomiso2avc1mp41
    MAJOR_BRAND     : isom
    MINOR_VERSION   : 512
    ENCODER         : Lavf61.7.100
  Duration: 00:23:46.73, start: -0.021000, bitrate: 1386 kb/s
  Stream #0:0: Video: hevc (Main 10), yuv420p10le(tv, bt709, progressive), 1920x1080 [SAR 1:1 DAR 16:9], 23.98 fps, 23.98 tbr, 1k tbn (default)
      Metadata:
        HANDLER_NAME    : VideoHandler
        VENDOR_ID       : [0][0][0][0]
        ENCODER         : Lavc61.19.100 libx265
        BPS             : 1189286
        DURATION        : 00:23:46.633708333
        NUMBER_OF_FRAMES: 34205
        NUMBER_OF_BYTES : 212084449
        _STATISTICS_WRITING_APP: mkvpropedit v66.0.0 ('Josie') 64-bit
        _STATISTICS_WRITING_DATE_UTC: 2025-05-30 12:39:03
        _STATISTICS_TAGS: BPS DURATION NUMBER_OF_FRAMES NUMBER_OF_BYTES
  Stream #0:1: Audio: aac (LC), 48000 Hz, stereo, fltp (default)
      Metadata:
        HANDLER_NAME    : SoundHandler
        VENDOR_ID       : [0][0][0][0]
        ENCODER         : Lavc61.19.100 aac
        BPS             : 192944
        DURATION        : 00:23:46.730000000
        NUMBER_OF_FRAMES: 66879
        NUMBER_OF_BYTES : 34409937
        _STATISTICS_WRITING_APP: mkvpropedit v66.0.0 ('Josie') 64-bit
        _STATISTICS_WRITING_DATE_UTC: 2025-05-30 12:39:03
        _STATISTICS_TAGS: BPS DURATION NUMBER_OF_FRAMES NUMBER_OF_BYTES
Input #1, mov,mp4,m4a,3gp,3g2,mj2, from 'G:\Аниме\Онгоинги\!_36_Осень_2024\DreamCast\Детская Делико\[DC] Delicos Nursery - 06_Telegram.mp4':
  Metadata:
    major_brand     : isom
    minor_version   : 512
    compatible_brands: isomiso2avc1mp41
    encoder         : Lavf60.16.100
  Duration: 00:23:46.70, start: 0.000000, bitrate: 3943 kb/s
  Stream #1:0[0x1](und): Video: h264 (High) (avc1 / 0x31637661), yuv420p(tv, bt709, progressive), 1920x1080 [SAR 1:1 DAR 16:9], 3795 kb/s, 23.98 fps, 23.98 tbr, 24k tbn (default)
      Metadata:
        handler_name    : VideoHandler
        vendor_id       : [0][0][0][0]
        encoder         : Lavc60.31.102 h264_qsv
  Stream #1:1[0x2](und): Audio: aac (HE-AACv2) (mp4a / 0x6134706D), 48000 Hz, stereo, fltp, 144 kb/s (default)
      Metadata:
        handler_name    : SoundHandler
        vendor_id       : [0][0][0][0]
Stream mapping:
  Stream #0:0 (hevc) -> settb:default
  Stream #1:0 (h264) -> settb:default
  ssim:default -> Stream #0:0 (wrapped_avframe)
  Stream #0:1 -> #0:1 (aac (native) -> pcm_s16le (native))
Output #0, null, to 'pipe:':
  Metadata:
    COMPATIBLE_BRANDS: isomiso2avc1mp41
    MAJOR_BRAND     : isom
    MINOR_VERSION   : 512
    encoder         : Lavf61.7.100
  Stream #0:0: Video: wrapped_avframe, yuv420p10le(tv, bt709, progressive), 1920x1080 [SAR 1:1 DAR 16:9], q=2-31, 200 kb/s, 23.98 fps, 23.98 tbn
      Metadata:
        encoder         : Lavc61.19.100 wrapped_avframe
  Stream #0:1: Audio: pcm_s16le, 48000 Hz, stereo, s16, 1536 kb/s (default)
      Metadata:
        HANDLER_NAME    : SoundHandler
        VENDOR_ID       : [0][0][0][0]
        _STATISTICS_TAGS: BPS DURATION NUMBER_OF_FRAMES NUMBER_OF_BYTES
        BPS             : 192944
        DURATION        : 00:23:46.730000000
        NUMBER_OF_FRAMES: 66879
        NUMBER_OF_BYTES : 34409937
        _STATISTICS_WRITING_APP: mkvpropedit v66.0.0 ('Josie') 64-bit
        _STATISTICS_WRITING_DATE_UTC: 2025-05-30 12:39:03
        encoder         : Lavc61.19.100 pcm_s16le
frame=  157 fps=0.0 q=-0.0 size=N/A time=00:00:06.54 bitrate=N/A speed=12.5x    frame=  412 fps=394 q=-0.0 size=N/A time=00:00:17.18 bitrate=N/A speed=16.4x    frame=  642 fps=410 q=-0.0 size=N/A time=00:00:26.77 bitrate=N/A speed=17.1x    frame=  810 fps=390 q=-0.0 size=N/A time=00:00:33.78 bitrate=N/A speed=16.3x    frame= 1004 fps=388 q=-0.0 size=N/A time=00:00:41.87 bitrate=N/A speed=16.2x    frame= 1211 fps=389 q=-0.0 size=N/A time=00:00:50.50 bitrate=N/A speed=16.2x    frame= 1427 fps=394 q=-0.0 size=N/A time=00:00:59.51 bitrate=N/A speed=16.4x    frame= 1612 fps=389 q=-0.0 size=N/A time=00:01:07.23 bitrate=N/A speed=16.2x    frame= 1791 fps=385 q=-0.0 size=N/A time=00:01:14.69 bitrate=N/A speed=16.1x    frame= 1964 fps=380 q=-0.0 size=N/A time=00:01:21.91 bitrate=N/A speed=15.8x    frame= 2177 fps=382 q=-0.0 size=N/A time=00:01:30.79 bitrate=N/A speed=15.9x    frame= 2362 fps=380 q=-0.0 size=N/A time=00:01:38.51 bitrate=N/A speed=15.8x    frame= 2565 fps=381 q=-0.0 size=N/A time=00:01:46.98 bitrate=N/A speed=15.9x    frame= 2778 fps=383 q=-0.0 size=N/A time=00:01:55.86 bitrate=N/A speed=  16x    frame= 2995 fps=386 q=-0.0 size=N/A time=00:02:04.91 bitrate=N/A speed=16.1x    frame= 3247 fps=392 q=-0.0 size=N/A time=00:02:15.42 bitrate=N/A speed=16.4x    frame= 3449 fps=392 q=-0.0 size=N/A time=00:02:23.85 bitrate=N/A speed=16.4x    frame= 3674 fps=395 q=-0.0 size=N/A time=00:02:33.23 bitrate=N/A speed=16.5x    frame= 3889 fps=395 q=-0.0 size=N/A time=00:02:42.20 bitrate=N/A speed=16.5x    frame= 4105 fps=397 q=-0.0 size=N/A time=00:02:51.21 bitrate=N/A speed=16.6x    frame= 4371 fps=403 q=-0.0 size=N/A time=00:03:02.30 bitrate=N/A speed=16.8x    frame= 4614 fps=406 q=-0.0 size=N/A time=00:03:12.44 bitrate=N/A speed=16.9x    frame= 4824 fps=406 q=-0.0 size=N/A time=00:03:21.20 bitrate=N/A speed=16.9x    frame= 5060 fps=408 q=-0.0 size=N/A time=00:03:31.04 bitrate=N/A speed=  17x    frame= 5303 fps=410 q=-0.0 size=N/A time=00:03:41.17 bitrate=N/A speed=17.1x    frame= 5525 fps=411 q=-0.0 size=N/A time=00:03:50.43 bitrate=N/A speed=17.2x    frame= 5769 fps=413 q=-0.0 size=N/A time=00:04:00.61 bitrate=N/A speed=17.2x    frame= 5981 fps=414 q=-0.0 size=N/A time=00:04:09.45 bitrate=N/A speed=17.3x    frame= 6231 fps=416 q=-0.0 size=N/A time=00:04:19.88 bitrate=N/A speed=17.3x    frame= 6483 fps=418 q=-0.0 size=N/A time=00:04:30.39 bitrate=N/A speed=17.4x    frame= 6691 fps=418 q=-0.0 size=N/A time=00:04:39.07 bitrate=N/A speed=17.4x    frame= 6924 fps=419 q=-0.0 size=N/A time=00:04:48.78 bitrate=N/A speed=17.5x    frame= 7157 fps=420 q=-0.0 size=N/A time=00:04:58.50 bitrate=N/A speed=17.5x    frame= 7366 fps=419 q=-0.0 size=N/A time=00:05:07.22 bitrate=N/A speed=17.5x    frame= 7576 fps=419 q=-0.0 size=N/A time=00:05:15.98 bitrate=N/A speed=17.5x    frame= 7837 fps=422 q=-0.0 size=N/A time=00:05:26.86 bitrate=N/A speed=17.6x    frame= 8064 fps=422 q=-0.0 size=N/A time=00:05:36.33 bitrate=N/A speed=17.6x    frame= 8285 fps=422 q=-0.0 size=N/A time=00:05:45.55 bitrate=N/A speed=17.6x    frame= 8513 fps=423 q=-0.0 size=N/A time=00:05:55.06 bitrate=N/A speed=17.6x    frame= 8754 fps=424 q=-0.0 size=N/A time=00:06:05.11 bitrate=N/A speed=17.7x    frame= 8985 fps=424 q=-0.0 size=N/A time=00:06:14.74 bitrate=N/A speed=17.7x    frame= 9214 fps=425 q=-0.0 size=N/A time=00:06:24.30 bitrate=N/A speed=17.7x    frame= 9453 fps=425 q=-0.0 size=N/A time=00:06:34.26 bitrate=N/A speed=17.7x    frame= 9670 fps=426 q=-0.0 size=N/A time=00:06:43.31 bitrate=N/A speed=17.7x    frame= 9923 fps=427 q=-0.0 size=N/A time=00:06:53.87 bitrate=N/A speed=17.8x    frame=10192 fps=429 q=-0.0 size=N/A time=00:07:05.09 bitrate=N/A speed=17.9x    frame=10423 fps=429 q=-0.0 size=N/A time=00:07:14.72 bitrate=N/A speed=17.9x    frame=10656 fps=430 q=-0.0 size=N/A time=00:07:24.44 bitrate=N/A speed=17.9x    frame=10897 fps=431 q=-0.0 size=N/A time=00:07:34.49 bitrate=N/A speed=  18x    frame=11137 fps=431 q=-0.0 size=N/A time=00:07:44.50 bitrate=N/A speed=  18x    frame=11384 fps=432 q=-0.0 size=N/A time=00:07:54.80 bitrate=N/A speed=  18x    frame=11641 fps=433 q=-0.0 size=N/A time=00:08:05.52 bitrate=N/A speed=18.1x    frame=11858 fps=433 q=-0.0 size=N/A time=00:08:14.57 bitrate=N/A speed=18.1x    frame=12110 fps=434 q=-0.0 size=N/A time=00:08:25.08 bitrate=N/A speed=18.1x    frame=12343 fps=435 q=-0.0 size=N/A time=00:08:34.80 bitrate=N/A speed=18.1x    frame=12595 fps=435 q=-0.0 size=N/A time=00:08:45.31 bitrate=N/A speed=18.2x    frame=12852 fps=437 q=-0.0 size=N/A time=00:08:56.03 bitrate=N/A speed=18.2x    frame=13132 fps=438 q=-0.0 size=N/A time=00:09:07.71 bitrate=N/A speed=18.3x    frame=13391 fps=439 q=-0.0 size=N/A time=00:09:18.51 bitrate=N/A speed=18.3x    frame=13632 fps=440 q=-0.0 size=N/A time=00:09:28.56 bitrate=N/A speed=18.4x    frame=13869 fps=440 q=-0.0 size=N/A time=00:09:38.45 bitrate=N/A speed=18.4x    frame=14080 fps=440 q=-0.0 size=N/A time=00:09:47.25 bitrate=N/A speed=18.3x    frame=14314 fps=440 q=-0.0 size=N/A time=00:09:57.01 bitrate=N/A speed=18.4x    frame=14570 fps=441 q=-0.0 size=N/A time=00:10:07.69 bitrate=N/A speed=18.4x    frame=14800 fps=441 q=-0.0 size=N/A time=00:10:17.28 bitrate=N/A speed=18.4x    frame=15043 fps=441 q=-0.0 size=N/A time=00:10:27.41 bitrate=N/A speed=18.4x    frame=15274 fps=442 q=-0.0 size=N/A time=00:10:37.05 bitrate=N/A speed=18.4x    frame=15523 fps=442 q=-0.0 size=N/A time=00:10:47.43 bitrate=N/A speed=18.4x    frame=15769 fps=443 q=-0.0 size=N/A time=00:10:57.69 bitrate=N/A speed=18.5x    frame=16028 fps=444 q=-0.0 size=N/A time=00:11:08.50 bitrate=N/A speed=18.5x    frame=16284 fps=444 q=-0.0 size=N/A time=00:11:19.17 bitrate=N/A speed=18.5x    frame=16536 fps=445 q=-0.0 size=N/A time=00:11:29.68 bitrate=N/A speed=18.6x    frame=16794 fps=446 q=-0.0 size=N/A time=00:11:40.44 bitrate=N/A speed=18.6x    frame=17033 fps=446 q=-0.0 size=N/A time=00:11:50.41 bitrate=N/A speed=18.6x    frame=17234 fps=445 q=-0.0 size=N/A time=00:11:58.80 bitrate=N/A speed=18.6x    frame=17462 fps=445 q=-0.0 size=N/A time=00:12:08.31 bitrate=N/A speed=18.6x    frame=17712 fps=446 q=-0.0 size=N/A time=00:12:18.73 bitrate=N/A speed=18.6x    frame=17972 fps=446 q=-0.0 size=N/A time=00:12:29.58 bitrate=N/A speed=18.6x    frame=18243 fps=447 q=-0.0 size=N/A time=00:12:40.88 bitrate=N/A speed=18.7x    frame=18506 fps=448 q=-0.0 size=N/A time=00:12:51.85 bitrate=N/A speed=18.7x    frame=18772 fps=449 q=-0.0 size=N/A time=00:13:02.94 bitrate=N/A speed=18.7x    frame=18986 fps=448 q=-0.0 size=N/A time=00:13:11.87 bitrate=N/A speed=18.7x    frame=19211 fps=448 q=-0.0 size=N/A time=00:13:21.25 bitrate=N/A speed=18.7x    frame=19406 fps=447 q=-0.0 size=N/A time=00:13:29.39 bitrate=N/A speed=18.7x    frame=19631 fps=447 q=-0.0 size=N/A time=00:13:38.77 bitrate=N/A speed=18.7x    frame=19879 fps=448 q=-0.0 size=N/A time=00:13:49.11 bitrate=N/A speed=18.7x    frame=20139 fps=448 q=-0.0 size=N/A time=00:13:59.96 bitrate=N/A speed=18.7x    frame=20368 fps=448 q=-0.0 size=N/A time=00:14:09.51 bitrate=N/A speed=18.7x    frame=20637 fps=449 q=-0.0 size=N/A time=00:14:20.73 bitrate=N/A speed=18.7x    frame=20889 fps=450 q=-0.0 size=N/A time=00:14:31.24 bitrate=N/A speed=18.8x    frame=21151 fps=450 q=-0.0 size=N/A time=00:14:42.17 bitrate=N/A speed=18.8x    frame=21350 fps=450 q=-0.0 size=N/A time=00:14:50.47 bitrate=N/A speed=18.8x    frame=21572 fps=449 q=-0.0 size=N/A time=00:14:59.73 bitrate=N/A speed=18.7x    frame=21823 fps=450 q=-0.0 size=N/A time=00:15:10.20 bitrate=N/A speed=18.8x    frame=22078 fps=450 q=-0.0 size=N/A time=00:15:20.83 bitrate=N/A speed=18.8x    frame=22310 fps=450 q=-0.0 size=N/A time=00:15:30.51 bitrate=N/A speed=18.8x    frame=22552 fps=450 q=-0.0 size=N/A time=00:15:40.60 bitrate=N/A speed=18.8x    frame=22765 fps=450 q=-0.0 size=N/A time=00:15:49.49 bitrate=N/A speed=18.8x    frame=22979 fps=450 q=-0.0 size=N/A time=00:15:58.41 bitrate=N/A speed=18.8x    frame=23232 fps=450 q=-0.0 size=N/A time=00:16:08.96 bitrate=N/A speed=18.8x    frame=23465 fps=450 q=-0.0 size=N/A time=00:16:18.68 bitrate=N/A speed=18.8x    frame=23734 fps=451 q=-0.0 size=N/A time=00:16:29.90 bitrate=N/A speed=18.8x    frame=23974 fps=451 q=-0.0 size=N/A time=00:16:39.91 bitrate=N/A speed=18.8x    frame=24232 fps=451 q=-0.0 size=N/A time=00:16:50.67 bitrate=N/A speed=18.8x    frame=24482 fps=452 q=-0.0 size=N/A time=00:17:01.10 bitrate=N/A speed=18.8x    frame=24714 fps=452 q=-0.0 size=N/A time=00:17:10.77 bitrate=N/A speed=18.8x    frame=24915 fps=451 q=-0.0 size=N/A time=00:17:19.16 bitrate=N/A speed=18.8x    frame=25119 fps=451 q=-0.0 size=N/A time=00:17:27.67 bitrate=N/A speed=18.8x    frame=25369 fps=451 q=-0.0 size=N/A time=00:17:38.09 bitrate=N/A speed=18.8x    frame=25607 fps=451 q=-0.0 size=N/A time=00:17:48.02 bitrate=N/A speed=18.8x    frame=25850 fps=451 q=-0.0 size=N/A time=00:17:58.16 bitrate=N/A speed=18.8x    frame=26088 fps=451 q=-0.0 size=N/A time=00:18:08.08 bitrate=N/A speed=18.8x    frame=26341 fps=451 q=-0.0 size=N/A time=00:18:18.63 bitrate=N/A speed=18.8x    frame=26561 fps=451 q=-0.0 size=N/A time=00:18:27.81 bitrate=N/A speed=18.8x    frame=26832 fps=452 q=-0.0 size=N/A time=00:18:39.11 bitrate=N/A speed=18.8x    frame=27083 fps=452 q=-0.0 size=N/A time=00:18:49.58 bitrate=N/A speed=18.9x    frame=27335 fps=453 q=-0.0 size=N/A time=00:19:00.09 bitrate=N/A speed=18.9x    frame=27613 fps=453 q=-0.0 size=N/A time=00:19:11.69 bitrate=N/A speed=18.9x    frame=27856 fps=453 q=-0.0 size=N/A time=00:19:21.82 bitrate=N/A speed=18.9x    frame=28122 fps=454 q=-0.0 size=N/A time=00:19:32.92 bitrate=N/A speed=18.9x    frame=28352 fps=454 q=-0.0 size=N/A time=00:19:42.51 bitrate=N/A speed=18.9x    frame=28573 fps=454 q=-0.0 size=N/A time=00:19:51.73 bitrate=N/A speed=18.9x    frame=28824 fps=454 q=-0.0 size=N/A time=00:20:02.20 bitrate=N/A speed=18.9x    frame=29068 fps=454 q=-0.0 size=N/A time=00:20:12.37 bitrate=N/A speed=18.9x    frame=29320 fps=454 q=-0.0 size=N/A time=00:20:22.88 bitrate=N/A speed=  19x    frame=29551 fps=454 q=-0.0 size=N/A time=00:20:32.52 bitrate=N/A speed=18.9x    frame=29778 fps=454 q=-0.0 size=N/A time=00:20:41.99 bitrate=N/A speed=18.9x    frame=29987 fps=454 q=-0.0 size=N/A time=00:20:50.70 bitrate=N/A speed=18.9x    frame=30174 fps=453 q=-0.0 size=N/A time=00:20:58.50 bitrate=N/A speed=18.9x    frame=30400 fps=453 q=-0.0 size=N/A time=00:21:07.93 bitrate=N/A speed=18.9x    frame=30608 fps=453 q=-0.0 size=N/A time=00:21:16.60 bitrate=N/A speed=18.9x    frame=30836 fps=453 q=-0.0 size=N/A time=00:21:26.11 bitrate=N/A speed=18.9x    frame=31044 fps=452 q=-0.0 size=N/A time=00:21:34.79 bitrate=N/A speed=18.9x    frame=31254 fps=452 q=-0.0 size=N/A time=00:21:43.55 bitrate=N/A speed=18.8x    frame=31488 fps=452 q=-0.0 size=N/A time=00:21:53.31 bitrate=N/A speed=18.8x    frame=31756 fps=452 q=-0.0 size=N/A time=00:22:04.48 bitrate=N/A speed=18.9x    frame=31926 fps=451 q=-0.0 size=N/A time=00:22:11.58 bitrate=N/A speed=18.8x    frame=32094 fps=450 q=-0.0 size=N/A time=00:22:18.58 bitrate=N/A speed=18.8x    frame=32238 fps=449 q=-0.0 size=N/A time=00:22:24.59 bitrate=N/A speed=18.7x    frame=32384 fps=448 q=-0.0 size=N/A time=00:22:30.68 bitrate=N/A speed=18.7x    frame=32540 fps=447 q=-0.0 size=N/A time=00:22:37.18 bitrate=N/A speed=18.6x    frame=32703 fps=446 q=-0.0 size=N/A time=00:22:43.98 bitrate=N/A speed=18.6x    frame=32868 fps=445 q=-0.0 size=N/A time=00:22:50.86 bitrate=N/A speed=18.6x    frame=33055 fps=445 q=-0.0 size=N/A time=00:22:58.66 bitrate=N/A speed=18.5x    frame=33227 fps=444 q=-0.0 size=N/A time=00:23:05.84 bitrate=N/A speed=18.5x    frame=33394 fps=443 q=-0.0 size=N/A time=00:23:12.80 bitrate=N/A speed=18.5x    frame=33559 fps=442 q=-0.0 size=N/A time=00:23:19.68 bitrate=N/A speed=18.4x    frame=33750 fps=442 q=-0.0 size=N/A time=00:23:27.65 bitrate=N/A speed=18.4x    frame=33959 fps=441 q=-0.0 size=N/A time=00:23:36.37 bitrate=N/A speed=18.4x    frame=34167 fps=441 q=-0.0 size=N/A time=00:23:45.04 bitrate=N/A speed=18.4x    [Parsed_ssim_10 @ 00000215217c15c0] SSIM Y:0.991282 (20.595751) U:0.989743 (19.889648) V:0.988518 (19.399998) All:0.990565 (20.252463)
[out#0/null @ 00000215217d03c0] video:14697KiB audio:267516KiB subtitle:0KiB other streams:0KiB global headers:0KiB muxing overhead: unknown
frame=34205 fps=441 q=-0.0 Lsize=N/A time=00:23:46.63 bitrate=N/A speed=18.4x    
